# xmcd
#
# Track frame offsets:
#	150
#	10570
#	21376
#	31516
#	45445
#	58478
#	69789
#	80886
#	91673
#	101948
#	111166
#	119138
#	129519
#	141847
#	151638
#	164208
#	175429
#	184693
#	195720
#	207672
#	217144
#	228610
#	239214
#	248848
#	258063
#	269414
#	280585
#	291132
#	300285
#	311744
#	322260
#	332071
#	342138
#
# Disc length: 4703 seconds
#
# Revision: 1
# Processed by: cddbd v1.5.2PL0 Copyright (c) Steve Scherf et al.
# Submitted via: FairStars CD Ripper 1.80
#
DISCID=f4125d21
DTITLE=Various Artist - The Last Shout! Twilight of the blues shouters 1954-1962 cd2
DYEAR=2014
DGENRE=Blues
TTITLE0=The Tibbs Brothers - Wake Up Miss Rip Van Winkle 
TTITLE1=Jimmy Rushing - Baby Don't Tell On Me 
TTITLE2=Grant Jones with Mike Simpson Orchestra - Soda Pop Rock 
TTITLE3=Bull Moose Jackson and His Buffalo Bearcats - I Wanna Hug Ya...
TTITLE4=Teddy 'Mr Bear' McRae and His Orchestra - Hold Out Baby 
TTITLE5=Redd Foxx - The Crazy House 
TTITLE6=Gene Phillips with Jack McVea Orchestra - I Owe Everybody
TTITLE7=Doc Pomus All Stars - Work Little Carrie Work 
TTITLE8=Big John Greer - Come Back Uncle John 
TTITLE9=Tic and Toc with Howard Biggs Orchestra - I'm A Big Boy Now 
TTITLE10=Ollie Shepard - My Baby Is Gone 
TTITLE11=Jimmy Liggins and His Drops Of Joy - Ada From Decatur 
TTITLE12=Bobby 'Mr Blues' Merrell - I Ain't Mad At You 
TTITLE13=Timmie Rogers - Take Me To Your Leader 
TTITLE14=Smoki Whitfield with Freddie Simon Orchestra - Function At The Junction 
TTITLE15=H-Bomb Ferguson and His Mad Lads - No-Sackie-Sack 
TTITLE16=Roy Milton - Red Light 
TTITLE17=Bull Moose Jackson and His Buffalo Bearcats - If You Ain't Lovin You Ain't Livin 
TTITLE18=Crown Prince Waterford - Driftwood Blues 
TTITLE19=Bull Moose Jackson - Heavyweight Baby 
TTITLE20=Crown Prince Waterford with Labert Ellis - Get Your Clothes...
TTITLE21=Redd Foxx - Real Pretty Mama 
TTITLE22=Bobby 'Mr Blues' Merrell - I'm Gonna Set You Free 
TTITLE23=Grant Jones with Mike Simpson Orchestra - Pinball Machine 
TTITLE24=Teddy 'Mr Bear' McRae and His Orchestra - Hi Fi Baby 
TTITLE25=Ollie Shepard - Say Yeah 
TTITLE26=John Greer - Come Back Maybelline 
TTITLE27=Bull Moose Jackson - Watch My Signals 
TTITLE28=Smoki Whitfield with Freddie Simon Orchestra - Take The Hint 
TTITLE29=H-Bomb Ferguson - Midnight Ramblin Tonight 
TTITLE30=Doc Palmer - Bye Baby Bye 
TTITLE31=Jimmy Liggins and His Drops Of Joy - Knocked Out 
TTITLE32=Tic and Toc with Howard Biggs Orchestra - Jibba Jab 
EXTD=
EXTT0=
EXTT1=
EXTT2=
EXTT3=
EXTT4=
EXTT5=
EXTT6=
EXTT7=
EXTT8=
EXTT9=
EXTT10=
EXTT11=
EXTT12=
EXTT13=
EXTT14=
EXTT15=
EXTT16=
EXTT17=
EXTT18=
EXTT19=
EXTT20=
EXTT21=
EXTT22=
EXTT23=
EXTT24=
EXTT25=
EXTT26=
EXTT27=
EXTT28=
EXTT29=
EXTT30=
EXTT31=
EXTT32=
PLAYORDER=
